<svg xmlns="http://www.w3.org/2000/svg" xmlns:v="https://svgstorm.com"
viewBox = "0 0 600 600"
width="600"
height="600">
<g fill="None" fill-opacity="0.0" stroke="#F5F5F5" stroke-opacity="1.00" stroke-width="0.3"><path d="
M 0.00 600.00 
L 600.00 600.00
L 600.00 0.00
L 0.00 0.00
L 0.00 600.00
M 408.00 225.00 
C 413.54 223.10 419.99 220.97 425.68 219.68 C 431.37 218.38 437.09 213.69 443.00 214.00
C 444.63 212.05 447.59 211.65 450.00 211.00
C 448.73 213.72 445.13 213.18 443.00 215.00
C 408.11 231.31 381.29 248.38 344.31 261.31 C 307.32 274.23 270.37 286.94 229.78 292.78 C 189.19 298.62 141.67 301.36 103.31 281.69 C 64.94 262.03 63.10 214.78 70.00 177.00
C 70.68 173.30 71.84 169.85 72.00 166.00
C 74.00 168.81 72.01 174.19 71.00 177.00
C 73.13 200.57 72.34 217.16 89.00 235.00
C 88.40 228.93 97.68 220.82 99.31 214.31 C 100.93 207.79 108.18 201.74 111.75 195.75 C 115.33 189.77 120.96 184.33 125.75 178.75 C 130.54 173.17 136.58 168.99 142.23 164.23 C 147.88 159.47 153.65 155.08 160.23 151.23 C 166.81 147.38 173.38 143.84 180.69 140.69 C 188.01 137.55 195.14 134.42 203.22 132.22 C 211.31 130.03 220.32 128.36 229.02 127.02 C 237.72 125.69 249.88 125.79 259.00 126.00 C 268.12 126.21 278.52 127.37 287.00 129.00 C 295.48 130.63 303.22 133.55 311.02 135.98 C 318.83 138.40 325.09 142.60 332.23 145.77 C 339.37 148.94 345.03 153.43 351.25 157.75 C 357.47 162.08 363.28 165.92 368.75 171.25 C 374.23 176.57 379.07 181.47 383.75 187.25 C 388.44 193.02 393.41 198.37 397.25 204.75 C 401.10 211.13 405.57 217.90 408.00 225.00
M 533.00 248.00 
C 530.13 239.53 529.02 232.95 527.02 223.98 C 525.03 215.00 523.29 210.00 519.08 200.92 C 514.86 191.85 509.68 193.66 501.75 198.75 C 493.82 203.85 490.76 204.97 481.77 209.77 C 472.79 214.57 480.11 223.20 475.23 232.23 C 470.34 241.26 465.24 224.99 465.00 219.00
C 461.00 218.40 458.03 221.60 454.00 221.00
C 455.14 218.18 457.35 215.54 460.00 214.00
C 460.21 208.56 440.97 201.15 450.23 197.23 C 459.49 193.32 466.36 207.19 474.25 201.25 C 482.13 195.30 485.72 192.55 494.23 187.23 C 502.74 181.91 505.05 176.29 498.23 168.77 C 491.41 161.25 487.55 158.23 480.30 152.70 C 473.05 147.16 467.27 143.29 462.00 137.00
C 470.25 132.33 477.84 139.25 485.23 142.77 C 492.62 146.29 499.79 151.30 507.23 154.77 C 514.67 158.24 521.93 165.86 529.23 159.23 C 536.53 152.60 542.35 151.27 551.02 147.02 C 559.70 142.78 573.55 144.60 567.69 154.69 C 561.84 164.79 559.31 166.22 550.92 171.92 C 542.54 177.63 535.12 178.93 535.99 189.01 C 536.87 199.08 536.97 211.37 538.00 221.00 C 539.03 230.64 542.38 242.83 533.00 248.00
M 423.00 270.00 
C 420.53 279.91 426.90 294.27 425.00 305.00 C 423.10 315.73 424.28 328.18 421.02 338.02 C 417.77 347.87 416.23 357.18 412.08 366.08 C 407.92 374.97 404.62 382.67 399.70 390.70 C 394.77 398.72 389.69 405.61 383.75 412.75 C 377.81 419.89 372.29 425.30 365.25 431.25 C 358.21 437.20 351.81 442.02 343.92 446.92 C 336.03 451.82 328.85 456.11 319.92 459.92 C 311.00 463.74 301.97 466.60 291.98 468.98 C 281.98 471.35 269.84 473.38 259.00 474.00 C 248.16 474.62 234.37 473.06 224.00 472.00 C 213.63 470.94 204.23 466.89 194.78 464.22 C 185.33 461.56 177.28 457.15 168.77 453.23 C 160.26 449.31 154.24 442.77 146.25 438.75 C 138.27 434.72 134.04 424.16 126.00 421.00
C 97.34 422.22 73.09 407.63 52.75 387.25 C 32.41 366.86 26.91 331.66 31.00 303.00
C 31.53 299.29 32.52 295.76 33.00 292.00
C 34.59 294.71 33.05 300.20 32.00 303.00
C 33.90 324.04 36.15 345.70 56.25 357.75 C 76.35 369.81 99.27 371.26 122.00 369.00 C 144.74 366.75 167.98 362.69 189.01 357.01 C 210.04 351.32 229.25 344.88 249.02 338.02 C 268.80 331.17 286.53 323.13 305.23 315.23 C 323.93 307.33 341.43 299.24 359.23 290.23 C 377.03 281.22 393.62 272.45 410.70 262.70 C 427.77 252.94 443.38 242.42 460.00 232.00
C 449.96 246.11 434.63 257.15 423.00 270.00 Z"/>
</g>
<g fill="None" fill-opacity="0.0" stroke="#FE3905" stroke-opacity="1.00" stroke-width="0.3"><path d="
M 89.00 235.00 
C 114.44 262.24 152.68 262.75 189.00 264.00 C 225.32 265.25 269.97 257.94 305.07 251.07 C 340.17 244.20 374.32 236.52 408.00 225.00
C 405.57 217.90 401.10 211.13 397.25 204.75 C 393.41 198.37 388.44 193.02 383.75 187.25 C 379.07 181.47 374.23 176.57 368.75 171.25 C 363.28 165.92 357.47 162.08 351.25 157.75 C 345.03 153.43 339.37 148.94 332.23 145.77 C 325.09 142.60 318.83 138.40 311.02 135.98 C 303.22 133.55 295.48 130.63 287.00 129.00 C 278.52 127.37 268.12 126.21 259.00 126.00 C 249.88 125.79 237.72 125.69 229.02 127.02 C 220.32 128.36 211.31 130.03 203.22 132.22 C 195.14 134.42 188.01 137.55 180.69 140.69 C 173.38 143.84 166.81 147.38 160.23 151.23 C 153.65 155.08 147.88 159.47 142.23 164.23 C 136.58 168.99 130.54 173.17 125.75 178.75 C 120.96 184.33 115.33 189.77 111.75 195.75 C 108.18 201.74 100.93 207.79 99.31 214.31 C 97.68 220.82 88.40 228.93 89.00 235.00 Z"/>
</g>
<g fill="None" fill-opacity="0.0" stroke="#470FC7" stroke-opacity="1.00" stroke-width="0.3"><path d="
M 533.00 248.00 
C 542.38 242.83 539.03 230.64 538.00 221.00 C 536.97 211.37 536.87 199.08 535.99 189.01 C 535.12 178.93 542.54 177.63 550.92 171.92 C 559.31 166.22 561.84 164.79 567.69 154.69 C 573.55 144.60 559.70 142.78 551.02 147.02 C 542.35 151.27 536.53 152.60 529.23 159.23 C 521.93 165.86 514.67 158.24 507.23 154.77 C 499.79 151.30 492.62 146.29 485.23 142.77 C 477.84 139.25 470.25 132.33 462.00 137.00
C 467.27 143.29 473.05 147.16 480.30 152.70 C 487.55 158.23 491.41 161.25 498.23 168.77 C 505.05 176.29 502.74 181.91 494.23 187.23 C 485.72 192.55 482.13 195.30 474.25 201.25 C 466.36 207.19 459.49 193.32 450.23 197.23 C 440.97 201.15 460.21 208.56 460.00 214.00
C 457.35 215.54 455.14 218.18 454.00 221.00
C 458.03 221.60 461.00 218.40 465.00 219.00
C 465.24 224.99 470.34 241.26 475.23 232.23 C 480.11 223.20 472.79 214.57 481.77 209.77 C 490.76 204.97 493.82 203.85 501.75 198.75 C 509.68 193.66 514.86 191.85 519.08 200.92 C 523.29 210.00 525.03 215.00 527.02 223.98 C 529.02 232.95 530.13 239.53 533.00 248.00 Z"/>
</g>
<g fill="None" fill-opacity="0.0" stroke="#F4CF8E" stroke-opacity="1.00" stroke-width="0.3"><path d="
M 70.00 177.00 
C 70.11 176.79 71.00 177.00 71.00 177.00
C 72.01 174.19 74.00 168.81 72.00 166.00
C 71.84 169.85 70.68 173.30 70.00 177.00 Z"/>
</g>
<g fill="None" fill-opacity="0.0" stroke="#FEA70F" stroke-opacity="1.00" stroke-width="0.3"><path d="
M 443.00 215.00 
C 443.22 214.88 443.00 214.00 443.00 214.00
C 437.09 213.69 431.37 218.38 425.68 219.68 C 419.99 220.97 413.54 223.10 408.00 225.00
C 374.32 236.52 340.17 244.20 305.07 251.07 C 269.97 257.94 225.32 265.25 189.00 264.00 C 152.68 262.75 114.44 262.24 89.00 235.00
C 72.34 217.16 73.13 200.57 71.00 177.00
C 71.00 177.00 70.11 176.79 70.00 177.00
C 63.10 214.78 64.94 262.03 103.31 281.69 C 141.67 301.36 189.19 298.62 229.78 292.78 C 270.37 286.94 307.32 274.23 344.31 261.31 C 381.29 248.38 408.11 231.31 443.00 215.00 Z"/>
</g>
<g fill="None" fill-opacity="0.0" stroke="#F4D090" stroke-opacity="1.00" stroke-width="0.3"><path d="
M 443.00 214.00 
C 443.00 214.00 443.22 214.88 443.00 215.00
C 445.13 213.18 448.73 213.72 450.00 211.00
C 447.59 211.65 444.63 212.05 443.00 214.00 Z"/>
</g>
<g fill="None" fill-opacity="0.0" stroke="#619FFE" stroke-opacity="1.00" stroke-width="0.3"><path d="
M 32.00 303.00 
C 31.74 303.25 31.00 303.00 31.00 303.00
C 26.91 331.66 32.41 366.86 52.75 387.25 C 73.09 407.63 97.34 422.22 126.00 421.00
C 183.69 418.53 243.20 390.95 292.08 363.08 C 340.96 335.20 379.86 305.44 423.00 270.00
C 434.63 257.15 449.96 246.11 460.00 232.00
C 443.38 242.42 427.77 252.94 410.70 262.70 C 393.62 272.45 377.03 281.22 359.23 290.23 C 341.43 299.24 323.93 307.33 305.23 315.23 C 286.53 323.13 268.80 331.17 249.02 338.02 C 229.25 344.88 210.04 351.32 189.01 357.01 C 167.98 362.69 144.74 366.75 122.00 369.00 C 99.27 371.26 76.35 369.81 56.25 357.75 C 36.15 345.70 33.90 324.04 32.00 303.00 Z"/>
</g>
<g fill="None" fill-opacity="0.0" stroke="#4404C6" stroke-opacity="1.00" stroke-width="0.3"><path d="
M 126.00 421.00 
C 134.04 424.16 138.27 434.72 146.25 438.75 C 154.24 442.77 160.26 449.31 168.77 453.23 C 177.28 457.15 185.33 461.56 194.78 464.22 C 204.23 466.89 213.63 470.94 224.00 472.00 C 234.37 473.06 248.16 474.62 259.00 474.00 C 269.84 473.38 281.98 471.35 291.98 468.98 C 301.97 466.60 311.00 463.74 319.92 459.92 C 328.85 456.11 336.03 451.82 343.92 446.92 C 351.81 442.02 358.21 437.20 365.25 431.25 C 372.29 425.30 377.81 419.89 383.75 412.75 C 389.69 405.61 394.77 398.72 399.70 390.70 C 404.62 382.67 407.92 374.97 412.08 366.08 C 416.23 357.18 417.77 347.87 421.02 338.02 C 424.28 328.18 423.10 315.73 425.00 305.00 C 426.90 294.27 420.53 279.91 423.00 270.00
C 379.86 305.44 340.96 335.20 292.08 363.08 C 243.20 390.95 183.69 418.53 126.00 421.00 Z"/>
</g>
<g fill="None" fill-opacity="0.0" stroke="#C3D7F5" stroke-opacity="1.00" stroke-width="0.3"><path d="
M 31.00 303.00 
C 31.00 303.00 31.74 303.25 32.00 303.00
C 33.05 300.20 34.59 294.71 33.00 292.00
C 32.52 295.76 31.53 299.29 31.00 303.00 Z"/>
</g>
<g fill="#F5F5F5" fill-opacity="1.00" stroke="None">
<path d="
M 0.00 600.00 
L 600.00 600.00
L 600.00 0.00
L 0.00 0.00
L 0.00 600.00
M 408.00 225.00 
C 413.54 223.10 419.99 220.97 425.68 219.68 C 431.37 218.38 437.09 213.69 443.00 214.00
C 444.63 212.05 447.59 211.65 450.00 211.00
C 448.73 213.72 445.13 213.18 443.00 215.00
C 408.11 231.31 381.29 248.38 344.31 261.31 C 307.32 274.23 270.37 286.94 229.78 292.78 C 189.19 298.62 141.67 301.36 103.31 281.69 C 64.94 262.03 63.10 214.78 70.00 177.00
C 70.68 173.30 71.84 169.85 72.00 166.00
C 74.00 168.81 72.01 174.19 71.00 177.00
C 73.13 200.57 72.34 217.16 89.00 235.00
C 88.40 228.93 97.68 220.82 99.31 214.31 C 100.93 207.79 108.18 201.74 111.75 195.75 C 115.33 189.77 120.96 184.33 125.75 178.75 C 130.54 173.17 136.58 168.99 142.23 164.23 C 147.88 159.47 153.65 155.08 160.23 151.23 C 166.81 147.38 173.38 143.84 180.69 140.69 C 188.01 137.55 195.14 134.42 203.22 132.22 C 211.31 130.03 220.32 128.36 229.02 127.02 C 237.72 125.69 249.88 125.79 259.00 126.00 C 268.12 126.21 278.52 127.37 287.00 129.00 C 295.48 130.63 303.22 133.55 311.02 135.98 C 318.83 138.40 325.09 142.60 332.23 145.77 C 339.37 148.94 345.03 153.43 351.25 157.75 C 357.47 162.08 363.28 165.92 368.75 171.25 C 374.23 176.57 379.07 181.47 383.75 187.25 C 388.44 193.02 393.41 198.37 397.25 204.75 C 401.10 211.13 405.57 217.90 408.00 225.00
M 533.00 248.00 
C 530.13 239.53 529.02 232.95 527.02 223.98 C 525.03 215.00 523.29 210.00 519.08 200.92 C 514.86 191.85 509.68 193.66 501.75 198.75 C 493.82 203.85 490.76 204.97 481.77 209.77 C 472.79 214.57 480.11 223.20 475.23 232.23 C 470.34 241.26 465.24 224.99 465.00 219.00
C 461.00 218.40 458.03 221.60 454.00 221.00
C 455.14 218.18 457.35 215.54 460.00 214.00
C 460.21 208.56 440.97 201.15 450.23 197.23 C 459.49 193.32 466.36 207.19 474.25 201.25 C 482.13 195.30 485.72 192.55 494.23 187.23 C 502.74 181.91 505.05 176.29 498.23 168.77 C 491.41 161.25 487.55 158.23 480.30 152.70 C 473.05 147.16 467.27 143.29 462.00 137.00
C 470.25 132.33 477.84 139.25 485.23 142.77 C 492.62 146.29 499.79 151.30 507.23 154.77 C 514.67 158.24 521.93 165.86 529.23 159.23 C 536.53 152.60 542.35 151.27 551.02 147.02 C 559.70 142.78 573.55 144.60 567.69 154.69 C 561.84 164.79 559.31 166.22 550.92 171.92 C 542.54 177.63 535.12 178.93 535.99 189.01 C 536.87 199.08 536.97 211.37 538.00 221.00 C 539.03 230.64 542.38 242.83 533.00 248.00
M 423.00 270.00 
C 420.53 279.91 426.90 294.27 425.00 305.00 C 423.10 315.73 424.28 328.18 421.02 338.02 C 417.77 347.87 416.23 357.18 412.08 366.08 C 407.92 374.97 404.62 382.67 399.70 390.70 C 394.77 398.72 389.69 405.61 383.75 412.75 C 377.81 419.89 372.29 425.30 365.25 431.25 C 358.21 437.20 351.81 442.02 343.92 446.92 C 336.03 451.82 328.85 456.11 319.92 459.92 C 311.00 463.74 301.97 466.60 291.98 468.98 C 281.98 471.35 269.84 473.38 259.00 474.00 C 248.16 474.62 234.37 473.06 224.00 472.00 C 213.63 470.94 204.23 466.89 194.78 464.22 C 185.33 461.56 177.28 457.15 168.77 453.23 C 160.26 449.31 154.24 442.77 146.25 438.75 C 138.27 434.72 134.04 424.16 126.00 421.00
C 97.34 422.22 73.09 407.63 52.75 387.25 C 32.41 366.86 26.91 331.66 31.00 303.00
C 31.53 299.29 32.52 295.76 33.00 292.00
C 34.59 294.71 33.05 300.20 32.00 303.00
C 33.90 324.04 36.15 345.70 56.25 357.75 C 76.35 369.81 99.27 371.26 122.00 369.00 C 144.74 366.75 167.98 362.69 189.01 357.01 C 210.04 351.32 229.25 344.88 249.02 338.02 C 268.80 331.17 286.53 323.13 305.23 315.23 C 323.93 307.33 341.43 299.24 359.23 290.23 C 377.03 281.22 393.62 272.45 410.70 262.70 C 427.77 252.94 443.38 242.42 460.00 232.00
C 449.96 246.11 434.63 257.15 423.00 270.00 Z"/>
</g>
<g fill="#FE3905" fill-opacity="1.00" stroke="None">
<path d="
M 89.00 235.00 
C 114.44 262.24 152.68 262.75 189.00 264.00 C 225.32 265.25 269.97 257.94 305.07 251.07 C 340.17 244.20 374.32 236.52 408.00 225.00
C 405.57 217.90 401.10 211.13 397.25 204.75 C 393.41 198.37 388.44 193.02 383.75 187.25 C 379.07 181.47 374.23 176.57 368.75 171.25 C 363.28 165.92 357.47 162.08 351.25 157.75 C 345.03 153.43 339.37 148.94 332.23 145.77 C 325.09 142.60 318.83 138.40 311.02 135.98 C 303.22 133.55 295.48 130.63 287.00 129.00 C 278.52 127.37 268.12 126.21 259.00 126.00 C 249.88 125.79 237.72 125.69 229.02 127.02 C 220.32 128.36 211.31 130.03 203.22 132.22 C 195.14 134.42 188.01 137.55 180.69 140.69 C 173.38 143.84 166.81 147.38 160.23 151.23 C 153.65 155.08 147.88 159.47 142.23 164.23 C 136.58 168.99 130.54 173.17 125.75 178.75 C 120.96 184.33 115.33 189.77 111.75 195.75 C 108.18 201.74 100.93 207.79 99.31 214.31 C 97.68 220.82 88.40 228.93 89.00 235.00 Z"/>
</g>
<g fill="#470FC7" fill-opacity="1.00" stroke="None">
<path d="
M 533.00 248.00 
C 542.38 242.83 539.03 230.64 538.00 221.00 C 536.97 211.37 536.87 199.08 535.99 189.01 C 535.12 178.93 542.54 177.63 550.92 171.92 C 559.31 166.22 561.84 164.79 567.69 154.69 C 573.55 144.60 559.70 142.78 551.02 147.02 C 542.35 151.27 536.53 152.60 529.23 159.23 C 521.93 165.86 514.67 158.24 507.23 154.77 C 499.79 151.30 492.62 146.29 485.23 142.77 C 477.84 139.25 470.25 132.33 462.00 137.00
C 467.27 143.29 473.05 147.16 480.30 152.70 C 487.55 158.23 491.41 161.25 498.23 168.77 C 505.05 176.29 502.74 181.91 494.23 187.23 C 485.72 192.55 482.13 195.30 474.25 201.25 C 466.36 207.19 459.49 193.32 450.23 197.23 C 440.97 201.15 460.21 208.56 460.00 214.00
C 457.35 215.54 455.14 218.18 454.00 221.00
C 458.03 221.60 461.00 218.40 465.00 219.00
C 465.24 224.99 470.34 241.26 475.23 232.23 C 480.11 223.20 472.79 214.57 481.77 209.77 C 490.76 204.97 493.82 203.85 501.75 198.75 C 509.68 193.66 514.86 191.85 519.08 200.92 C 523.29 210.00 525.03 215.00 527.02 223.98 C 529.02 232.95 530.13 239.53 533.00 248.00 Z"/>
</g>
<g fill="#F4CF8E" fill-opacity="1.00" stroke="None">
<path d="
M 70.00 177.00 
C 70.11 176.79 71.00 177.00 71.00 177.00
C 72.01 174.19 74.00 168.81 72.00 166.00
C 71.84 169.85 70.68 173.30 70.00 177.00 Z"/>
</g>
<g fill="#FEA70F" fill-opacity="1.00" stroke="None">
<path d="
M 443.00 215.00 
C 443.22 214.88 443.00 214.00 443.00 214.00
C 437.09 213.69 431.37 218.38 425.68 219.68 C 419.99 220.97 413.54 223.10 408.00 225.00
C 374.32 236.52 340.17 244.20 305.07 251.07 C 269.97 257.94 225.32 265.25 189.00 264.00 C 152.68 262.75 114.44 262.24 89.00 235.00
C 72.34 217.16 73.13 200.57 71.00 177.00
C 71.00 177.00 70.11 176.79 70.00 177.00
C 63.10 214.78 64.94 262.03 103.31 281.69 C 141.67 301.36 189.19 298.62 229.78 292.78 C 270.37 286.94 307.32 274.23 344.31 261.31 C 381.29 248.38 408.11 231.31 443.00 215.00 Z"/>
</g>
<g fill="#F4D090" fill-opacity="1.00" stroke="None">
<path d="
M 443.00 214.00 
C 443.00 214.00 443.22 214.88 443.00 215.00
C 445.13 213.18 448.73 213.72 450.00 211.00
C 447.59 211.65 444.63 212.05 443.00 214.00 Z"/>
</g>
<g fill="#619FFE" fill-opacity="1.00" stroke="None">
<path d="
M 32.00 303.00 
C 31.74 303.25 31.00 303.00 31.00 303.00
C 26.91 331.66 32.41 366.86 52.75 387.25 C 73.09 407.63 97.34 422.22 126.00 421.00
C 183.69 418.53 243.20 390.95 292.08 363.08 C 340.96 335.20 379.86 305.44 423.00 270.00
C 434.63 257.15 449.96 246.11 460.00 232.00
C 443.38 242.42 427.77 252.94 410.70 262.70 C 393.62 272.45 377.03 281.22 359.23 290.23 C 341.43 299.24 323.93 307.33 305.23 315.23 C 286.53 323.13 268.80 331.17 249.02 338.02 C 229.25 344.88 210.04 351.32 189.01 357.01 C 167.98 362.69 144.74 366.75 122.00 369.00 C 99.27 371.26 76.35 369.81 56.25 357.75 C 36.15 345.70 33.90 324.04 32.00 303.00 Z"/>
</g>
<g fill="#4404C6" fill-opacity="1.00" stroke="None">
<path d="
M 126.00 421.00 
C 134.04 424.16 138.27 434.72 146.25 438.75 C 154.24 442.77 160.26 449.31 168.77 453.23 C 177.28 457.15 185.33 461.56 194.78 464.22 C 204.23 466.89 213.63 470.94 224.00 472.00 C 234.37 473.06 248.16 474.62 259.00 474.00 C 269.84 473.38 281.98 471.35 291.98 468.98 C 301.97 466.60 311.00 463.74 319.92 459.92 C 328.85 456.11 336.03 451.82 343.92 446.92 C 351.81 442.02 358.21 437.20 365.25 431.25 C 372.29 425.30 377.81 419.89 383.75 412.75 C 389.69 405.61 394.77 398.72 399.70 390.70 C 404.62 382.67 407.92 374.97 412.08 366.08 C 416.23 357.18 417.77 347.87 421.02 338.02 C 424.28 328.18 423.10 315.73 425.00 305.00 C 426.90 294.27 420.53 279.91 423.00 270.00
C 379.86 305.44 340.96 335.20 292.08 363.08 C 243.20 390.95 183.69 418.53 126.00 421.00 Z"/>
</g>
<g fill="#C3D7F5" fill-opacity="1.00" stroke="None">
<path d="
M 31.00 303.00 
C 31.00 303.00 31.74 303.25 32.00 303.00
C 33.05 300.20 34.59 294.71 33.00 292.00
C 32.52 295.76 31.53 299.29 31.00 303.00 Z"/>
</g>
</svg>